<?xml version="1.0" encoding="UTF-8" standalone="no"?>
<!-- Created with Inkscape (http://www.inkscape.org/) -->

<svg
   width="36.257881mm"
   height="29.235844mm"
   viewBox="0 0 36.257881 29.235844"
   version="1.1"
   id="svg1"
   xml:space="preserve"
   inkscape:version="1.4.3 (0d15f75, 2025-12-25)"
   sodipodi:docname="player.svg"
   xmlns:inkscape="http://www.inkscape.org/namespaces/inkscape"
   xmlns:sodipodi="http://sodipodi.sourceforge.net/DTD/sodipodi-0.dtd"
   xmlns="http://www.w3.org/2000/svg"
   xmlns:svg="http://www.w3.org/2000/svg"><sodipodi:namedview
     id="namedview1"
     pagecolor="#ffffff"
     bordercolor="#000000"
     borderopacity="0.25"
     inkscape:showpageshadow="2"
     inkscape:pageopacity="0.0"
     inkscape:pagecheckerboard="0"
     inkscape:deskcolor="#d1d1d1"
     inkscape:document-units="mm"
     showgrid="false"
     inkscape:zoom="4.3295454"
     inkscape:cx="570.15223"
     inkscape:cy="593.48032"
     inkscape:window-width="2560"
     inkscape:window-height="1417"
     inkscape:window-x="-8"
     inkscape:window-y="-8"
     inkscape:window-maximized="1"
     inkscape:current-layer="layer1"><inkscape:grid
       id="grid1"
       units="mm"
       originx="-161.00002"
       originy="-185.38202"
       spacingx="0.99999998"
       spacingy="1"
       empcolor="#0099e5"
       empopacity="0.30196078"
       color="#0099e5"
       opacity="0.14901961"
       empspacing="5"
       enabled="true"
       visible="false" /><inkscape:page
       x="0"
       y="1.3884333e-22"
       width="36.257881"
       height="29.235846"
       id="page2"
       margin="0"
       bleed="0" /></sodipodi:namedview><defs
     id="defs1"><inkscape:path-effect
       effect="fillet_chamfer"
       id="path-effect5"
       is_visible="true"
       lpeversion="1"
       nodesatellites_param="F,0,1,1,0,5.0664643,0,1 @ F,0,0,1,0,0,0,1 @ F,0,0,1,0,5.0664643,0,1 @ F,0,0,1,0,0,0,1"
       radius="0"
       unit="px"
       method="auto"
       mode="F"
       chamfer_steps="1"
       flexible="false"
       use_knot_distance="true"
       apply_no_radius="true"
       apply_with_radius="true"
       only_selected="false"
       hide_knots="false" /><inkscape:path-effect
       effect="fillet_chamfer"
       id="path-effect4"
       is_visible="true"
       lpeversion="1"
       nodesatellites_param="F,0,0,1,0,0,0,1 @ F,0,0,1,0,0.9999537,0,1 @ F,0,1,1,0,0.9999537,0,1 @ F,0,0,1,0,0,0,1 @ F,0,1,1,0,0.9999537,0,1 @ F,0,1,1,0,0.9999537,0,1"
       radius="0"
       unit="px"
       method="auto"
       mode="F"
       chamfer_steps="1"
       flexible="false"
       use_knot_distance="true"
       apply_no_radius="true"
       apply_with_radius="true"
       only_selected="false"
       hide_knots="false" /><inkscape:path-effect
       effect="fillet_chamfer"
       id="path-effect5-1"
       is_visible="true"
       lpeversion="1"
       nodesatellites_param="F,0,1,1,0,5.0664643,0,1 @ F,0,0,1,0,0,0,1 @ F,0,0,1,0,5.0664643,0,1 @ F,0,0,1,0,0,0,1"
       radius="0"
       unit="px"
       method="auto"
       mode="F"
       chamfer_steps="1"
       flexible="false"
       use_knot_distance="true"
       apply_no_radius="true"
       apply_with_radius="true"
       only_selected="false"
       hide_knots="false" /><inkscape:path-effect
       effect="fillet_chamfer"
       id="path-effect5-4"
       is_visible="true"
       lpeversion="1"
       nodesatellites_param="F,0,1,1,0,5.0664643,0,1 @ F,0,0,1,0,0,0,1 @ F,0,0,1,0,5.0664643,0,1 @ F,0,0,1,0,0,0,1"
       radius="0"
       unit="px"
       method="auto"
       mode="F"
       chamfer_steps="1"
       flexible="false"
       use_knot_distance="true"
       apply_no_radius="true"
       apply_with_radius="true"
       only_selected="false"
       hide_knots="false" /></defs><g
     inkscape:label="Layer 1"
     inkscape:groupmode="layer"
     id="layer1"
     transform="translate(-160.99999,-185.38201)"><g
       id="g7"><path
         id="rect1"
         style="fill:#000000;stroke-width:0.223267"
         d="m 175.00017,189.99977 -13.00022,2e-4 A 0.99996941,0.99996941 134.99955 0 0 161,190.99994 v 18.0001 A 0.99996156,0.99996156 45.000225 0 0 161.99995,210 l 13.00022,1e-4 9.10552,4.55253 a 0.61801947,0.61801947 148.28194 0 0 0.89439,-0.55278 v -27.99982 a 0.61802002,0.61802002 31.718082 0 0 -0.8944,-0.55278 z"
         inkscape:path-effect="#path-effect4"
         inkscape:original-d="M 175.00017,189.99977 161,189.99999 v 20 l 14.00017,1.1e-4 9.99991,4.9997 v -29.99972 z"
         sodipodi:nodetypes="ccccccc" /><path
         id="path4"
         style="fill:#000000;stroke-width:0.264583"
         d="m 188.3085,190.93318 c 1.49865,2.76019 2.30267,5.87315 2.30264,9.06656 -7e-5,3.19372 -0.80434,6.30696 -2.30335,9.0673 -1.33139,2.45167 -0.8892,3.01738 0.96901,0.94318 2.42732,-2.70945 3.82873,-6.25785 3.82876,-10.01048 -1e-5,-3.75222 -1.40111,-7.30028 -3.82795,-10.00964 -1.85806,-2.07435 -2.3003,-1.50869 -0.96911,0.94308 z"
         inkscape:path-effect="#path-effect5"
         inkscape:original-d="m 185.32929,186.85377 a 19.000004,19.000004 0 0 1 5.28185,13.14597 19.000004,19.000004 0 0 1 -5.28288,13.14648 15,15 0 0 0 7.7773,-13.14648 15,15 0 0 0 -7.77627,-13.14597 z"
         transform="translate(0.47219772,2.5413273e-4)" /><path
         id="path4-2"
         style="fill:#000000;stroke-width:0.264583"
         d="m 188.3085,190.93318 c 1.49865,2.76019 2.30267,5.87315 2.30264,9.06656 -7e-5,3.19372 -0.80434,6.30696 -2.30335,9.0673 -1.33139,2.45167 -0.8892,3.01738 0.96901,0.94318 2.42732,-2.70945 3.82873,-6.25785 3.82876,-10.01048 -1e-5,-3.75222 -1.40111,-7.30028 -3.82795,-10.00964 -1.85806,-2.07435 -2.3003,-1.50869 -0.96911,0.94308 z"
         inkscape:path-effect="#path-effect5-4"
         inkscape:original-d="m 185.32929,186.85377 a 19.000004,19.000004 0 0 1 5.28185,13.14597 19.000004,19.000004 0 0 1 -5.28288,13.14648 15,15 0 0 0 7.7773,-13.14648 15,15 0 0 0 -7.77627,-13.14597 z"
         transform="matrix(1.1441169,0,0,1.1441169,-23.677441,-28.823139)" /><path
         id="path4-7"
         style="fill:#000000;stroke-width:0.264583"
         d="m 188.3085,190.93318 c 1.49865,2.76019 2.30267,5.87315 2.30264,9.06656 -7e-5,3.19372 -0.80434,6.30696 -2.30335,9.0673 -1.33139,2.45167 -0.8892,3.01738 0.96901,0.94318 2.42732,-2.70945 3.82873,-6.25785 3.82876,-10.01048 -1e-5,-3.75222 -1.40111,-7.30028 -3.82795,-10.00964 -1.85806,-2.07435 -2.3003,-1.50869 -0.96911,0.94308 z"
         inkscape:path-effect="#path-effect5-1"
         inkscape:original-d="m 185.32929,186.85377 a 19.000004,19.000004 0 0 1 5.28185,13.14597 19.000004,19.000004 0 0 1 -5.28288,13.14648 15,15 0 0 0 7.7773,-13.14648 15,15 0 0 0 -7.77627,-13.14597 z"
         transform="matrix(0.84926829,0,0,0.84926829,26.058896,30.14661)" /></g></g></svg>
