<?xml version="1.0" encoding="UTF-8" standalone="no"?>
<!-- Created with Inkscape (http://www.inkscape.org/) -->

<svg
   width="36.052807mm"
   height="29.235844mm"
   viewBox="0 0 36.052807 29.235844"
   version="1.1"
   id="svg1"
   xml:space="preserve"
   inkscape:version="1.4.3 (0d15f75, 2025-12-25)"
   sodipodi:docname="player.svg"
   xmlns:inkscape="http://www.inkscape.org/namespaces/inkscape"
   xmlns:sodipodi="http://sodipodi.sourceforge.net/DTD/sodipodi-0.dtd"
   xmlns="http://www.w3.org/2000/svg"
   xmlns:svg="http://www.w3.org/2000/svg"><sodipodi:namedview
     id="namedview1"
     pagecolor="#ffffff"
     bordercolor="#000000"
     borderopacity="0.25"
     inkscape:showpageshadow="2"
     inkscape:pageopacity="0.0"
     inkscape:pagecheckerboard="0"
     inkscape:deskcolor="#d1d1d1"
     inkscape:document-units="mm"
     showgrid="false"
     inkscape:zoom="4.3295454"
     inkscape:cx="570.15223"
     inkscape:cy="593.48032"
     inkscape:window-width="2560"
     inkscape:window-height="1417"
     inkscape:window-x="-8"
     inkscape:window-y="-8"
     inkscape:window-maximized="1"
     inkscape:current-layer="layer1"><inkscape:grid
       id="grid1"
       units="mm"
       originx="-161.00002"
       originy="-218.18404"
       spacingx="0.99999998"
       spacingy="1"
       empcolor="#0099e5"
       empopacity="0.30196078"
       color="#0099e5"
       opacity="0.14901961"
       empspacing="5"
       enabled="true"
       visible="false" /><inkscape:page
       x="0"
       y="1.6341064e-22"
       width="36.052807"
       height="29.235846"
       id="page2"
       margin="0"
       bleed="0" /></sodipodi:namedview><defs
     id="defs1"><inkscape:path-effect
       effect="fillet_chamfer"
       id="path-effect8"
       is_visible="true"
       lpeversion="1"
       nodesatellites_param="F,0,1,1,0,0.49476162,0,1 @ F,0,1,1,0,0.49476162,0,1 @ F,0,0,1,0,0,0,1 @ F,0,1,1,0,0.49476162,0,1 @ F,0,1,1,0,0.49476162,0,1 @ F,0,0,1,0,0,0,1 @ F,0,1,1,0,0.49476162,0,1 @ F,0,0,1,0,0.49476162,0,1 @ F,0,0,1,0,0,0,1 @ F,0,1,1,0,0.49476162,0,1 @ F,0,1,1,0,0.49476162,0,1 @ F,0,0,1,0,0,0,1"
       radius="0"
       unit="px"
       method="auto"
       mode="F"
       chamfer_steps="1"
       flexible="false"
       use_knot_distance="true"
       apply_no_radius="true"
       apply_with_radius="true"
       only_selected="false"
       hide_knots="false" /><inkscape:path-effect
       effect="fillet_chamfer"
       id="path-effect4-6"
       is_visible="true"
       lpeversion="1"
       nodesatellites_param="F,0,0,1,0,0,0,1 @ F,0,0,1,0,0.9999537,0,1 @ F,0,1,1,0,0.9999537,0,1 @ F,0,0,1,0,0,0,1 @ F,0,1,1,0,0.9999537,0,1 @ F,0,1,1,0,0.9999537,0,1"
       radius="0"
       unit="px"
       method="auto"
       mode="F"
       chamfer_steps="1"
       flexible="false"
       use_knot_distance="true"
       apply_no_radius="true"
       apply_with_radius="true"
       only_selected="false"
       hide_knots="false" /></defs><g
     inkscape:label="Layer 1"
     inkscape:groupmode="layer"
     id="layer1"
     transform="translate(-160.99999,-218.18403)"><g
       id="g8"><path
         id="rect1-8"
         style="fill:#000000;stroke-width:0.223267"
         d="m 175.00017,189.99977 -13.00022,2e-4 A 0.99996941,0.99996941 134.99955 0 0 161,190.99994 v 18.0001 A 0.99996156,0.99996156 45.000225 0 0 161.99995,210 l 13.00022,1e-4 9.10552,4.55253 a 0.61801947,0.61801947 148.28194 0 0 0.89439,-0.55278 v -27.99982 a 0.61802002,0.61802002 31.718082 0 0 -0.8944,-0.55278 z"
         inkscape:path-effect="#path-effect4-6"
         inkscape:original-d="M 175.00017,189.99977 161,189.99999 v 20 l 14.00017,1.1e-4 9.99991,4.9997 v -29.99972 z"
         sodipodi:nodetypes="ccccccc"
         transform="translate(0,32.802013)" /><path
         id="rect8"
         style="stroke-width:0.247495"
         d="m -28.628221,293.09843 -1.010351,-1.9e-4 a 0.49467009,0.49467009 135.0053 0 0 -0.494762,0.49467 v 5.50523 h -5.50523 a 0.49476162,0.49476162 135 0 0 -0.494762,0.49476 v 1.01072 a 0.49476162,0.49476162 45 0 0 0.494762,0.49476 h 5.50523 v 5.50524 a 0.49467009,0.49467009 44.9947 0 0 0.494762,0.49467 l 1.010351,-1.9e-4 a 0.49485317,0.49485317 134.9947 0 0 0.494762,-0.49485 l 0,-5.50523 h 5.50523 a 0.49476162,0.49476162 135 0 0 0.494762,-0.49476 v -1.00999 a 0.49476162,0.49476162 45 0 0 -0.494762,-0.49476 h -5.50523 v -5.50523 a 0.49485317,0.49485317 45.0053 0 0 -0.494762,-0.49485 z"
         transform="rotate(-45)"
         inkscape:path-effect="#path-effect8"
         inkscape:original-d="m -28.133459,293.09852 -1.999875,-3.7e-4 v 5.99999 h -5.999992 v 2.00024 h 5.999992 v 6 l 1.999875,-3.7e-4 v -5.99999 h 5.999992 v -1.99951 h -5.999992 z" /></g></g></svg>
