<?xml version="1.0" encoding="UTF-8" standalone="no"?>
<!-- Created with Inkscape (http://www.inkscape.org/) -->

<svg
   width="35.000141mm"
   height="35.999805mm"
   viewBox="0 0 35.000141 35.999805"
   version="1.1"
   id="svg1"
   xml:space="preserve"
   inkscape:version="1.4.3 (0d15f75, 2025-12-25)"
   sodipodi:docname="player.svg"
   xmlns:inkscape="http://www.inkscape.org/namespaces/inkscape"
   xmlns:sodipodi="http://sodipodi.sourceforge.net/DTD/sodipodi-0.dtd"
   xmlns="http://www.w3.org/2000/svg"
   xmlns:svg="http://www.w3.org/2000/svg"><sodipodi:namedview
     id="namedview1"
     pagecolor="#ffffff"
     bordercolor="#000000"
     borderopacity="0.25"
     inkscape:showpageshadow="2"
     inkscape:pageopacity="0.0"
     inkscape:pagecheckerboard="0"
     inkscape:deskcolor="#d1d1d1"
     inkscape:document-units="mm"
     showgrid="false"
     inkscape:zoom="4.3295454"
     inkscape:cx="570.15223"
     inkscape:cy="593.48032"
     inkscape:window-width="2560"
     inkscape:window-height="1417"
     inkscape:window-x="-8"
     inkscape:window-y="-8"
     inkscape:window-maximized="1"
     inkscape:current-layer="layer1"><inkscape:grid
       id="grid1"
       units="mm"
       originx="-119.56408"
       originy="-197.56509"
       spacingx="0.99999998"
       spacingy="1"
       empcolor="#0099e5"
       empopacity="0.30196078"
       color="#0099e5"
       opacity="0.14901961"
       empspacing="5"
       enabled="true"
       visible="false" /><inkscape:page
       x="0"
       y="0"
       width="35.000141"
       height="35.999805"
       id="page2"
       margin="0"
       bleed="0" /></sodipodi:namedview><defs
     id="defs1"><inkscape:path-effect
       effect="fillet_chamfer"
       id="path-effect16"
       is_visible="true"
       lpeversion="1"
       nodesatellites_param="F,0,0,1,0,0.99980605,0,1 @ F,0,0,1,0,0.99980605,0,1 @ F,0,0,1,0,0.99980605,0,1 @ F,0,0,1,0,0.99980605,0,1 @ F,0,0,1,0,0.99980605,0,1 @ F,0,1,1,0,1,0,1 @ F,0,0,1,0,0.99980605,0,1 @ F,0,0,1,0,0.99980605,0,1 @ F,0,0,1,0,0.99980605,0,1 @ F,0,0,1,0,0.99980605,0,1 @ F,0,0,1,0,0.99980605,0,1 @ F,0,0,1,0,0.99980605,0,1 | F,0,0,1,0,0.99980605,0,1 @ F,0,0,1,0,0.99980605,0,1 @ F,0,0,1,0,0.99980605,0,1 @ F,0,0,1,0,0.99980605,0,1 @ F,0,0,1,0,0.99980605,0,1 @ F,0,0,1,0,0.99980605,0,1 @ F,0,0,1,0,0.99980605,0,1 @ F,0,0,1,0,0.99980605,0,1"
       radius="0"
       unit="px"
       method="auto"
       mode="F"
       chamfer_steps="1"
       flexible="false"
       use_knot_distance="true"
       apply_no_radius="true"
       apply_with_radius="true"
       only_selected="false"
       hide_knots="false" /></defs><g
     inkscape:label="Layer 1"
     inkscape:groupmode="layer"
     id="layer1"
     transform="translate(-119.56407,-197.56511)"><path
       id="rect9"
       style="fill:#000000;stroke-width:0.203525"
       d="m 115.00001,179.9998 2e-4,32.00031 a 309030.32,309030.32 89.999815 0 1 1e-5,1.99962 l 0,2.6e-4 a 0.99980605,0.99980605 45 0 0 0.99981,0.99981 h 3.00007 30.00024 a 0.99980105,0.99980105 134.99986 0 0 0.99981,-0.99981 l -1.4e-4,-28 a 1.000005,1.000005 44.999857 0 0 -1.00001,-1 l 2e-4,-1.00019 a 9998.0606,9998.0606 90.00573 0 0 2e-4,-1.99962 v -7.8e-4 a 0.99978855,0.99978855 44.999499 0 0 -0.99981,-0.99979 l -10.00087,1.7e-4 a 3.3022095,3.3022095 16.843673 0 1 -1.83172,-0.55455 l -1.33609,-0.89067 a 3.3023137,3.3023137 16.844174 0 0 -1.83172,-0.55457 h -15.00038 -2 a 0.99979958,0.99979958 134.99981 0 0 -0.9998,0.99981 z m 2.9998,1.00019 h 15.00038 a 3.3021351,3.3021351 16.845034 0 1 1.8317,0.55459 l 1.33622,0.89082 a 3.3021351,3.3021351 16.845034 0 0 1.8317,0.55459 h 8.00038 A 0.99980605,0.99980605 45 0 1 147,183.9998 v 3.8e-4 a 0.99980938,0.99980938 134.9999 0 1 -0.99981,0.99981 l -25.00047,9e-5 a 0.99980938,0.99980938 134.9999 0 0 -0.99981,0.99981 v 26.00022 a 0.99980605,0.99980605 135 0 1 -0.99981,0.99981 h -1.0002 a 0.99980886,0.99980886 44.999919 0 1 -0.99981,-0.99981 L 117,181.9998 a 0.99980324,0.99980324 134.99992 0 1 0.99981,-0.99981 z"
       sodipodi:nodetypes="cccccccccccccccccccccc"
       inkscape:path-effect="#path-effect16"
       inkscape:original-d="m 115,178.99999 2.2e-4,33.99993 v 1.99988 h 4.99969 30.00024 L 150,184.99999 h -1 l 4e-4,-2 v -2.0004 L 136.99991,180.9998 134,178.99999 h -17 z m 2,2 h 17 l 3,2 h 10 v 2 l -27.00009,9e-5 v 27.99984 h -2.99982 z"
       transform="translate(4.5640625,18.565113)" /></g></svg>
