<?xml version="1.0" encoding="UTF-8" standalone="no"?>
<!-- Created with Inkscape (http://www.inkscape.org/) -->

<svg
   width="36.947067mm"
   height="49.999985mm"
   viewBox="0 0 36.947067 49.999985"
   version="1.1"
   id="svg1"
   xml:space="preserve"
   inkscape:version="1.3.2 (091e20e, 2023-11-25, custom)"
   sodipodi:docname="drawing.svg"
   xmlns:inkscape="http://www.inkscape.org/namespaces/inkscape"
   xmlns:sodipodi="http://sodipodi.sourceforge.net/DTD/sodipodi-0.dtd"
   xmlns="http://www.w3.org/2000/svg"
   xmlns:svg="http://www.w3.org/2000/svg"><sodipodi:namedview
     id="namedview1"
     pagecolor="#ffffff"
     bordercolor="#000000"
     borderopacity="0.25"
     inkscape:showpageshadow="2"
     inkscape:pageopacity="0.0"
     inkscape:pagecheckerboard="0"
     inkscape:deskcolor="#d1d1d1"
     inkscape:document-units="mm"
     inkscape:zoom="2.8284271"
     inkscape:cx="223.26897"
     inkscape:cy="513.88985"
     inkscape:window-width="2560"
     inkscape:window-height="1417"
     inkscape:window-x="-8"
     inkscape:window-y="-8"
     inkscape:window-maximized="1"
     inkscape:current-layer="g1" /><defs
     id="defs1"><style
       id="style1">

      .cls-3 {
        fill: url(#linear-gradient-1);
      }

      .cls-4 {
        fill: #fc9502;
      }

      .cls-5 {
        fill: #fce202;
      }
    </style></defs><g
     inkscape:label="Layer 1"
     inkscape:groupmode="layer"
     id="layer1"
     transform="translate(-138.22005,-158.56498)"><g
       id="g7"
       inkscape:export-filename="fire.svg"
       inkscape:export-xdpi="96"
       inkscape:export-ydpi="96"><g
         id="fire"
         transform="matrix(0.83006536,0,0,0.83006536,66.518017,95.842463)"><path
           d="m 86.474651,114.52371 c 0.49547,11.83347 10.24162,21.27585 22.196839,21.27585 12.27221,0 22.22071,-10.28298 22.22071,-22.2207 0,-1.59564 0.0286,-4.78455 -2.3639,-10.1648 -1.43182,-3.21987 -2.32987,-5.242666 -2.83669,-7.091713 -0.27847,-1.016243 -0.82004,-2.63079 -2.36391,0 -0.91034,1.551195 -0.94556,3.782253 -0.94556,3.782253 0,0 -3.387,-2.599118 -5.67337,-7.564501 -3.35179,-7.279174 -0.6775,-11.630415 0.23639,-14.656214 0.31629,-1.046738 0.51486,-2.927934 -1.65474,-2.127515 -2.21072,0.815784 -8.05524,4.906995 -11.11036,9.219232 -4.360219,6.154427 -5.909759,12.055917 -5.909759,12.055917 0,0 -1.39612,-1.732743 -1.89112,-3.545858 -0.55907,-2.047379 -0.56734,-4.075137 -2.36367,-1.890888 -1.7084,2.077163 -4.24558,5.980681 -5.67361,9.691777 -2.59297,6.73926 -1.86725,13.23716 -1.86725,13.23716 z"
           id="path-1"
           class="cls-3"
           fill-rule="evenodd"
           style="fill:#000000;stroke-width:0.236391" /><path
           d="m 108.67149,135.79956 c 8.48618,0 15.36539,-6.87919 15.36539,-15.36538 0,-5.12045 -2.06346,-8.22922 -6.35796,-12.44501 -2.7497,-2.69935 -5.32328,-6.01472 -6.41706,-8.272254 -0.21535,-0.444415 -0.70539,-2.760333 -2.59486,-0.0487 -0.99119,1.422124 -2.54499,3.951274 -3.54138,6.109754 -1.71761,3.72149 -2.12751,7.3281 -2.12751,7.3281 0,0 -1.68334,-0.99189 -2.83669,-3.54585 -0.371839,-0.82312 -1.123559,-3.93922 -3.225069,-0.82359 -1.54198,2.28637 -3.66027,6.3972 -3.63025,11.69755 0,8.48619 6.879439,15.36539 15.365389,15.36538 z"
           id="path-2"
           class="cls-4"
           fill-rule="evenodd"
           style="fill:#ffffff;stroke-width:0.236391" /><path
           d="m 108.4351,119.01584 c -2.18662,0 -2.18662,4.04914 -4.96421,9.45562 -1.84952,3.59999 0.91696,7.3281 4.96421,7.3281 4.04724,0 6.14615,-3.28086 6.14615,-7.3281 0,-4.04701 -3.95954,-9.45562 -6.14615,-9.45562 z"
           id="path-3"
           class="cls-5"
           fill-rule="evenodd"
           style="fill:#000000;stroke-width:0.236391" /></g></g></g></svg>
