<svg xmlns="http://www.w3.org/2000/svg" shape-rendering="geometricPrecision" text-rendering="geometricPrecision" image-rendering="optimizeQuality" fill-rule="evenodd" clip-rule="evenodd" viewBox="0 0 511.999 288.047"><path d="M0 57.141c0-5.635 4.569-10.204 10.204-10.204 3.764 0 9.708.194 15.963.397 14.801.481 31.642 1.029 42.354-1.47 7.034-1.642 17.702-7.671 30.032-14.64 37.144-20.995 87.503-49.456 129.409-15.45a109.843 109.843 0 014.533 3.86h238.468c11.237 0 21.531 4.212 29.007 11.308 7.428 7.052 12.029 16.856 12.029 28.157 0 11.302-4.598 21.107-12.028 28.16-7.476 7.094-17.767 11.307-29.008 11.307h-89.025a33.941 33.941 0 013.401 2.364c7.339 5.81 11.834 14.197 11.834 25.412 0 11.109-4.519 20.739-11.819 27.657a39.611 39.611 0 01-8.197 5.97c3.765 1.254 7.22 2.974 10.245 5.225 7.45 5.547 11.998 13.7 11.998 25.119 0 11.312-4.563 20.658-11.964 27.301-7.296 6.551-17.273 10.289-28.15 10.464 6.047 4.786 9.648 11.797 9.648 21.941 0 10.863-4.389 19.791-11.502 26.133-7.155 6.382-17.001 9.93-27.7 9.93h-66.803c-74.423 6.004-96.487-2.057-145.535-19.984-9.966-3.642-21.113-7.717-34.844-12.408-23.211-7.93-45.129-7.922-69.729-7.912v.04h-2.617C4.569 245.818 0 241.249 0 235.614V57.141zM281.27 88.37h189.693c16.962 0 30.84-12.308 30.84-29.27 0-16.963-13.884-29.271-30.84-29.271H241.355c1.109 1.586 2.301 3.358 3.725 5.448l36.19 53.093zm-38.247 143.764c-3.943 12.982 1.685 32.801 18.517 43.745-88.261 7.175-99.788-5.89-175.723-31.834-25.572-8.737-49.013-8.431-75.613-8.431V57.141c17.571 0 44.353 2.445 60.629-1.353 32.235-7.523 108.613-81.334 160.352-22.819l49.677 72.881c7.885 11.57 6.892 9.906 7.455 23.837l2.832 70.205c1.398 31.253-19.913 45.008-41.752 22.685-7.419-9.536-12.922-20.011-15.679-32.023-3.252-14.171-3.582-30.01-1.385-47.469a5.474 5.474 0 00-2.215-5.258l-20.863-15.061a5.485 5.485 0 00-.37-.267l-17.19-12.408a5.473 5.473 0 10-6.396 8.884l11.978 8.647c-11.906 10.611-25.392 18.388-41.108 22.15-17.985 4.305-39.071 3.427-64.281-4.36a5.48 5.48 0 00-3.22 10.474c27.183 8.396 50.183 9.282 70.032 4.53 18.462-4.42 34.056-13.662 47.658-26.239l14.748 10.646c-1.94 17.536-1.419 33.607 1.926 48.179 3.389 14.769 10.4 27.555 19.991 39.132zm51.14-1.694h35.569c15.949 0 28.998 3.63 28.998 19.58 0 15.949-13.056 25.859-28.998 25.859h-56.873l-.047-.047c-10.501-10.078-21.555-22.941-20.413-37.755 3.582 2.231 7.161 3.775 10.664 4.678 6.903 1.779 13.442 1.114 19.22-1.666 4.705-2.265 8.74-5.876 11.88-10.649zm5.417-12.558h58.907c16.89 0 30.709-10.679 30.709-27.569s-13.83-22.859-30.709-22.859H300.02l1.291 31.999c.305 6.8-.328 12.992-1.731 18.429zm-.067-62.987h57.333c16.566 0 30.123-11.985 30.123-28.553 0-16.567-13.562-23.843-30.123-23.843h-65.948c3.307 4.873 4.965 7.512 6.089 11.114 1.088 3.476 1.18 6.337 1.349 11.651l.144 4.025 1.033 25.606z"/></svg>