<?xml version="1.0" encoding="UTF-8" standalone="no"?>
<!-- Created with Inkscape (http://www.inkscape.org/) -->

<svg
   width="43.074825mm"
   height="24.625952mm"
   viewBox="0 0 43.074825 24.625952"
   version="1.1"
   id="svg1"
   xml:space="preserve"
   inkscape:export-filename="statsIcon.svg"
   inkscape:export-xdpi="96"
   inkscape:export-ydpi="96"
   xmlns:inkscape="http://www.inkscape.org/namespaces/inkscape"
   xmlns:sodipodi="http://sodipodi.sourceforge.net/DTD/sodipodi-0.dtd"
   xmlns="http://www.w3.org/2000/svg"
   xmlns:svg="http://www.w3.org/2000/svg"><sodipodi:namedview
     id="namedview1"
     pagecolor="#ffffff"
     bordercolor="#000000"
     borderopacity="0.25"
     inkscape:showpageshadow="2"
     inkscape:pageopacity="0.0"
     inkscape:pagecheckerboard="0"
     inkscape:deskcolor="#d1d1d1"
     inkscape:document-units="mm"
     showgrid="false"><inkscape:grid
       id="grid8"
       units="mm"
       originx="-138.6042"
       originy="-154.16211"
       spacingx="0.1"
       spacingy="0.1"
       empcolor="#0099e5"
       empopacity="0.30196078"
       color="#0099e5"
       opacity="0.14901961"
       empspacing="5"
       enabled="true"
       visible="false" /><inkscape:page
       x="0"
       y="0"
       width="43.074825"
       height="24.625952"
       id="page2"
       margin="0"
       bleed="0" /></sodipodi:namedview><defs
     id="defs1"><inkscape:path-effect
       effect="fillet_chamfer"
       id="path-effect8"
       is_visible="true"
       lpeversion="1"
       nodesatellites_param="F,0,1,1,0,0.18921067,0,1 @ F,0,1,1,0,0.18921067,0,1 @ F,0,1,1,0,0.18921067,0,1 @ F,0,1,1,0,0.18921067,0,1 @ F,0,1,1,0,0.18921067,0,1 @ F,0,1,1,0,0.18921067,0,1 @ F,0,1,1,0,0.18921067,0,1 @ F,0,1,1,0,0.18921067,0,1 @ F,0,0,1,0,0.18921067,0,1 @ F,0,1,1,0,0.18921067,0,1 @ F,0,1,1,0,0.18921067,0,1 @ F,0,1,1,0,0.18921067,0,1"
       radius="0"
       unit="px"
       method="auto"
       mode="F"
       chamfer_steps="1"
       flexible="false"
       use_knot_distance="true"
       apply_no_radius="true"
       apply_with_radius="true"
       only_selected="false"
       hide_knots="false" /></defs><g
     inkscape:label="Layer 1"
     inkscape:groupmode="layer"
     id="layer1"
     transform="translate(-138.60421,-154.16211)"><g
       id="g33"
       inkscape:export-filename="statsIcon.svg"
       inkscape:export-xdpi="96"
       inkscape:export-ydpi="96"
       transform="matrix(1,0,0,1.2514625,0,-38.765995)"><path
         id="path5"
         style="font-style:italic;font-size:26.4583px;line-height:5.1;-inkscape-font-specification:'sans-serif Italic';text-align:center;text-anchor:middle;stroke-width:0.264583"
         sodipodi:type="inkscape:offset"
         inkscape:radius="-0.3022089"
         inkscape:original="M 170.26367 154.38281 L 169.77344 156.55273 L 180.72852 156.55273 L 167.58984 173.61914 L 170.52344 173.61914 L 182.87305 157.26367 L 183.53125 154.38281 L 170.26367 154.38281 z "
         d="m 170.50586,154.68555 -0.35352,1.56445 h 10.57618 a 0.30223912,0.30223912 0 0 1 0.24023,0.48633 l -12.76367,16.58008 h 2.16797 l 12.2207,-16.1836 0.55859,-2.44726 z"
         transform="translate(-1.4733233)" /><path
         id="path4"
         style="font-style:italic;font-size:26.4583px;line-height:5.1;-inkscape-font-specification:'sans-serif Italic';text-align:center;text-anchor:middle;stroke-width:0.264583"
         d="m 165.82031,154.16211 c -1.82235,0 -3.46296,0.35424 -4.92969,1.06641 -6.7e-4,0 -0.001,0 -0.002,0 -1.46218,0.70559 -2.68171,1.65708 -3.66601,2.85351 -1.00314,1.23299 -1.76362,2.64352 -2.28321,4.23633 -6.7e-4,0 -0.001,0 -0.002,0 -0.51967,1.58457 -0.77734,3.29912 -0.77734,5.14453 0,1.9967 0.50964,3.55023 1.52148,4.6875 1.01027,1.12715 2.41997,1.68945 4.27344,1.68945 2.18652,0 3.97709,-0.72456 5.4043,-2.18554 1.43766,-1.46304 2.14843,-3.22063 2.14843,-5.30274 0,-0.80969 -0.12919,-1.51805 -0.38672,-2.13281 -0.25695,-0.61335 -0.64937,-1.1441 -1.18164,-1.59375 -0.50054,-0.41712 -1.06805,-0.72186 -1.70312,-0.91406 -0.62853,-0.19275 -1.33024,-0.28907 -2.10938,-0.28906 -0.82892,0 -1.66459,0.11612 -2.5039,0.35351 -0.84085,0.23782 -1.43307,0.38245 -2.17133,0.79825 -0.12288,0.0697 -0.26895,-0.0432 -0.23242,-0.17969 0.50674,-1.9483 1.30017,-3.35556 2.76312,-4.57364 1.46404,-1.22733 3.14755,-1.84765 5.02539,-1.84765 0.5188,0 1.02043,0.0523 1.50586,0.1582 0.4557,0.0976 0.76162,0.1925 0.98438,0.29102 l 0.39843,-2.00196 c -0.2116,-0.061 -0.44304,-0.12172 -0.74414,-0.17187 -0.34879,-0.0581 -0.79521,-0.0859 -1.33203,-0.0859 z m -4.65039,8.96875 c 1.29024,0 2.28662,0.2959 2.96289,0.9082 0.67358,0.60195 1.00781,1.48251 1.00781,2.59766 0,1.63099 -0.45019,2.96652 -1.35742,3.98047 -0.89793,1.01352 -2.08496,1.52733 -3.51758,1.52734 -0.49104,-1e-5 -0.97122,-0.0815 -1.43554,-0.24219 -0.4626,-0.16326 -0.87626,-0.4317 -1.23633,-0.80078 -0.33799,-0.34712 -0.61819,-0.81399 -0.84766,-1.39648 0,-6.7e-4 0,-0.001 0,-0.002 -0.22439,-0.59239 -0.33593,-1.31284 -0.33593,-2.1621 0,-0.54779 0.028,-1.10875 0.0801,-1.68164 0,-6.7e-4 0,-0.001 0,-0.002 0.0607,-0.58121 0.13422,-1.05915 0.22266,-1.43945 0.0101,-0.0451 0.0394,-0.0836 0.0801,-0.10547 0.73323,-0.38407 1.47787,-0.67763 2.23047,-0.87891 0.76041,-0.20102 1.47589,-0.30273 2.14648,-0.30273 z"
         sodipodi:nodetypes="ccccccscscssccsscccscccsccccscsccccsccccccc" /><path
         style="font-style:italic;font-size:26.4583px;line-height:5.1;-inkscape-font-specification:'sans-serif Italic';text-align:center;text-anchor:middle;stroke-width:0.264583"
         d="m 153.56984,162.97798 -6.6439,0.49726 a 0.18921096,0.18921096 130.71977 0 0 -0.17456,0.2028 l 0.49725,6.64391 a 0.18921088,0.18921088 130.71978 0 1 -0.17456,0.2028 l -1.76123,0.13182 a 0.18921046,0.18921046 40.719784 0 1 -0.2028,-0.17456 l -0.49725,-6.64391 a 0.18921069,0.18921069 40.719819 0 0 -0.2028,-0.17456 l -6.64392,0.49725 a 0.18921055,0.18921055 40.71984 0 1 -0.2028,-0.17456 l -0.12603,-1.68392 a 0.18921108,0.18921108 130.7198 0 1 0.17456,-0.2028 l 6.64391,-0.49726 a 0.18921094,0.18921094 130.71977 0 0 0.17456,-0.2028 l -0.49725,-6.64391 a 0.18921088,0.18921088 130.71978 0 1 0.17456,-0.2028 l 1.76123,-0.13182 a 0.18921046,0.18921046 40.719784 0 1 0.2028,0.17456 l 0.49725,6.64391 a 0.18921067,0.18921067 40.719816 0 0 0.2028,0.17456 l 6.64391,-0.49725 a 0.18921053,0.18921053 40.719837 0 1 0.2028,0.17456 l 0.12603,1.68392 a 0.1892111,0.1892111 130.71979 0 1 -0.17456,0.2028 z"
         id="text1"
         transform="matrix(0.97878477,-0.11775708,0.11899738,0.98334084,-15.227267,20.614706)"
         inkscape:original-d="m 153.75852,162.96386 -7.02126,0.5255 0.52549,7.02127 -2.13859,0.16006 -0.52549,-7.02127 -7.02128,0.52549 -0.15427,-2.06128 7.02127,-0.5255 -0.52549,-7.02127 2.13859,-0.16006 0.52549,7.02127 7.02127,-0.52549 z"
         inkscape:path-effect="#path-effect8" /></g></g></svg>
