<?xml version="1.0" encoding="UTF-8" standalone="no"?>
<!-- Created with Inkscape (http://www.inkscape.org/) -->

<svg
   width="25.872322mm"
   height="39.566288mm"
   viewBox="0 0 25.872322 39.566288"
   version="1.1"
   id="svg1"
   xml:space="preserve"
   xmlns:inkscape="http://www.inkscape.org/namespaces/inkscape"
   xmlns:sodipodi="http://sodipodi.sourceforge.net/DTD/sodipodi-0.dtd"
   xmlns="http://www.w3.org/2000/svg"
   xmlns:svg="http://www.w3.org/2000/svg"><sodipodi:namedview
     id="namedview1"
     pagecolor="#ffffff"
     bordercolor="#000000"
     borderopacity="0.25"
     inkscape:showpageshadow="2"
     inkscape:pageopacity="0.0"
     inkscape:pagecheckerboard="0"
     inkscape:deskcolor="#d1d1d1"
     inkscape:document-units="mm" /><defs
     id="defs1" /><g
     inkscape:label="Layer 1"
     inkscape:groupmode="layer"
     id="layer1"
     transform="translate(-43.629476,-97.345174)"><g
       style="fill:#000000;stroke-width:0.281952;stroke-dasharray:none"
       id="g1"
       transform="matrix(3.5467057,0,0,3.5467057,-56.82017,70.729389)"><path
         id="path1"
         style="stroke-width:0.281952"
         d="m 38.226562,7.1445312 c -1.049868,-0.011732 -1.910994,0.3362411 -2.754539,1.1877353 -6.67e-4,2.5e-6 -0.0013,2.5e-6 -0.002,0 -0.09432,0.1018177 -0.16044,0.3287517 -0.06872,0.4728721 6.89e-4,0.00195 0.0014,0.0039 0.002,0.00586 0.06628,0.1095166 0.141345,0.2646968 0.430068,0.1914397 0.919074,-0.2312693 1.773933,-0.1153557 2.684201,0.5014685 0.103321,0.069985 0.143964,0.2024755 0.09766,0.3183594 L 38.25781,10.726563 c -0.113611,0.284006 -0.09952,0.450111 0,0.636719 0.03588,0.111426 0.02271,0.243125 -0.05469,0.320313 l -6.384766,5.876953 c -0.236571,0.219318 -0.339721,0.420042 -0.353515,0.591797 -0.01379,0.171754 0.04839,0.347221 0.255859,0.554687 l 0.880859,0.882813 c 0.203364,0.197853 0.384273,0.263984 0.558594,0.251953 0.174991,-0.01208 0.373379,-0.111207 0.587891,-0.347656 6.63e-4,-6.71e-4 0.0013,-0.0013 0.002,-0.002 L 39.597656,13.125 c 0.115884,-0.07205 0.234168,-0.08091 0.347656,-0.03711 0.173972,0.121374 0.283571,0.113435 0.533204,0.0625 l 0.597656,-0.123047 c 0.08713,-0.01765 0.177301,0.0095 0.240234,0.07226 l 0.396485,0.396485 c 0.05585,0.05607 0.08377,0.134122 0.07617,0.21289 l -0.0293,0.296875 c 3e-6,6.67e-4 3e-6,0.0013 0,0.002 3e-6,6.67e-4 3e-6,0.0013 0,0.002 3e-6,6.67e-4 3e-6,0.0013 0,0.002 3e-6,6.67e-4 3e-6,0.0013 0,0.002 -0.03045,0.23921 0.0079,0.351348 0.259765,0.603516 l 0.46875,0.46289 c 6.77e-4,0.0013 0.0013,0.0026 0.002,0.0039 0.102741,0.104763 0.205282,0.145066 0.294922,0.148438 0.08964,0.0034 0.176148,-0.02576 0.267578,-0.117188 l 1.859375,-1.859375 c 0.09228,-0.09231 0.120128,-0.176967 0.117188,-0.265625 -0.0029,-0.08796 -0.04201,-0.19137 -0.144531,-0.296875 l -0.002,-0.002 -0.46875,-0.46875 C 44.160011,11.96856 44.03932,11.92372 43.814453,11.957031 c -0.0033,7.28e-4 -0.0065,0.0014 -0.0098,0.002 l -0.300782,0.0332 c -0.08008,0.0088 -0.159829,-0.0192 -0.216797,-0.07617 L 42.90625,11.537109 c -0.06673,-0.06622 -0.09348,-0.162792 -0.07031,-0.253906 l 0.167968,-0.650391 v -0.0039 c 0.02899,-0.122352 0.02778,-0.202587 -0.0078,-0.298828 -0.03606,-0.0975 -0.117709,-0.21984 -0.277344,-0.376953 -6.7e-4,-6.465e-4 -0.0013,-0.0013 -0.002,-0.00195 l -1.378906,-1.375 C 40.36527,7.6089289 39.276413,7.1562635 38.226562,7.1445312 Z m 0.263672,0.3085938 c 0.903139,0.081348 1.781669,0.502372 2.507813,1.2285156 L 42.5,10.173828 c 0.08764,0.08762 0.161082,0.193148 0.191406,0.314453 0.03032,0.121306 0.01445,0.236153 -0.0098,0.339844 0,0 -0.221371,0.620491 -0.177735,0.75 0.04166,0.123633 0.599024,0.683012 0.707032,0.707031 0.09992,0.02222 0.419921,-0.03711 0.419921,-0.03711 0.0888,-0.0092 0.184338,-0.01827 0.292969,0.01758 0.108631,0.03585 0.187149,0.102446 0.263672,0.175781 0.002,0.0019 0.004,0.0039 0.0059,0.0059 l 0.351563,0.357422 c 0.101512,0.103952 0.100621,0.270189 -0.002,0.373046 l -1.56836,1.576172 c -0.103635,0.103357 -0.271365,0.103357 -0.375,0 l -0.357421,-0.357422 c -0.07395,-0.07396 -0.142439,-0.150852 -0.179688,-0.259765 -0.03676,-0.107486 -0.02871,-0.203955 -0.01953,-0.292969 v -0.002 -0.002 c 0,0 0.05279,-0.313199 0.03906,-0.425782 -0.0109,-0.08935 -0.610198,-0.672912 -0.707031,-0.705078 -0.102377,-0.03401 -0.789062,0.152344 -0.789062,0.152344 l 0.0039,-0.002 c -0.08947,0.0185 -0.191397,0.03884 -0.3125,0.01172 -0.121103,-0.02712 -0.225854,-0.100855 -0.314453,-0.189453 l -1.240235,-1.246094 c -0.0813,-0.0813 -0.162072,-0.177204 -0.189453,-0.3125 -0.02738,-0.135296 0.0087,-0.256849 0.05273,-0.365235 6.63e-4,-6.7e-4 -0.03368,0.08034 0,0 0,0 0.303701,-0.685607 0.315797,-1.132984 0.0121,-0.447377 -1.711788,-1.1670679 -2.680032,-0.9163596 -0.119187,0.022855 -0.348757,0.1043464 -0.450166,-0.00524 -0.0056,-0.0069 -0.01078,-0.014066 -0.01563,-0.021484 -0.02693,-0.044858 -0.06031,-0.1406942 -0.03906,-0.2363281 0.02125,-0.095634 0.07382,-0.153694 0.119141,-0.1933594 0.0057,-0.0048 0.01153,-0.00936 0.01758,-0.013672 C 36.66356,7.6329814 37.586881,7.371758 38.490234,7.453125 Z m -0.132812,4.425781 c 0.105015,-0.09738 0.268332,-0.09393 0.36914,0.0078 l 0.697266,0.705078 c 0.09994,0.101085 0.102536,0.262943 0.0059,0.367187 l -5.802735,6.25 c -0.11527,0.12643 -0.274089,0.275807 -0.467553,0.291962 -0.193463,0.01615 -0.384131,-0.116082 -0.538306,-0.266571 -6.7e-4,-6.63e-4 -0.0013,-0.0013 -0.002,-0.002 l -0.548829,-0.552734 c -0.172484,-0.172486 -0.277267,-0.374581 -0.25,-0.580079 0.02727,-0.205497 0.153481,-0.33314 0.263672,-0.433593 z"
         sodipodi:nodetypes="scccccccccccsccsccccccccccssscccccccccccccccccccccccssccscsscscccccccscccssccsccscszcccsccscccccssccscc"
         inkscape:export-filename="hammernew.svg"
         inkscape:export-xdpi="17.160696"
         inkscape:export-ydpi="17.160696"
         transform="translate(4.1536946,0.36006005)" /><path
         id="path4-8"
         style="fill:#000000;fill-opacity:1;stroke:none;stroke-width:394.913;stroke-dasharray:none;stroke-opacity:1"
         d="m 31.969331,7.5043671 -3.647374,3.1747139 c 0,0 2.453778,-0.12549 2.453778,0.627832 v 7.300623 c 0,0.07072 2.387192,0.06959 2.387192,0 v -7.300623 c 0,-0.753324 2.453778,-0.627832 2.453778,-0.627832 z m 0,0.301896 2.883746,2.5100179 c 0,0 -1.94003,0.179983 -1.94003,0.585287 v 7.482023 c 0,0.05552 -1.887286,0.04435 -1.887286,0 v -7.482023 c 0,-0.404373 -1.940031,-0.585287 -1.940031,-0.585287 z"
         inkscape:export-filename="up.svg"
         inkscape:export-xdpi="17.160696"
         inkscape:export-ydpi="17.160696"
         sodipodi:nodetypes="ccscssccccsssscc" /><path
         style="fill:#000000;fill-opacity:1;stroke:none;stroke-width:394.913;stroke-dasharray:none;stroke-opacity:1"
         d="M 22.194164,32.600267 V 23.70385 c 0,-0.753325 2.453771,-0.62777 2.453771,-0.62777 l -3.647368,-3.17473 -3.647365,3.17473 c 0,0 2.453771,-0.125552 2.453771,0.627771 v 8.896417"
         id="path4-8-1"
         sodipodi:nodetypes="cscccsc" /><path
         style="fill:#ffffff;fill-opacity:1;stroke:none;stroke-width:312.221;stroke-dasharray:none;stroke-opacity:1"
         d="m 21.944238,32.37621 v -9.07767 c 0,-0.405305 1.939979,-0.585338 1.939979,-0.585338 l -2.883649,-2.509979 -2.883648,2.509979 c 0,0 1.939981,0.180964 1.939981,0.585338 v 9.07767"
         id="path4-8-0-5"
         sodipodi:nodetypes="cscccsc" /></g></g></svg>
